HIERARCHY
ROOT Hips
{
 OFFSET 0.000000 0.000000 0.000000
 CHANNELS 6 Xposition Yposition Zposition Yrotation Xrotation Zrotation
 JOINT Chest
 {
  OFFSET 0.000000 10.080317 -0.001081
  CHANNELS 3 Yrotation Xrotation Zrotation
  JOINT Chest2
  {
   OFFSET 0.000000 11.096852 0.001963
   CHANNELS 3 Yrotation Xrotation Zrotation
   JOINT Chest3
   {
    OFFSET 0.000000 10.026525 0.000000
    CHANNELS 3 Yrotation Xrotation Zrotation
    JOINT Chest4
    {
     OFFSET 0.000000 10.026525 0.000000
     CHANNELS 3 Yrotation Xrotation Zrotation
     JOINT Neck
     {
      OFFSET 0.000000 14.108171 0.000000
      CHANNELS 3 Yrotation Xrotation Zrotation
      JOINT Head
      {
       OFFSET 0.000000 9.333493 0.004668
       CHANNELS 3 Yrotation Xrotation Zrotation
       End Site
       {
        OFFSET 0.000000 17.851786 0.002438
       }
      }
     }
     JOINT RightCollar
     {
      OFFSET -3.071622 7.873185 0.000000
      CHANNELS 3 Yrotation Xrotation Zrotation
      JOINT RightShoulder
      {
       OFFSET -14.378659 0.000000 0.000000
       CHANNELS 3 Yrotation Xrotation Zrotation
       JOINT RightElbow
       {
        OFFSET -30.778728 0.000000 0.000000
        CHANNELS 3 Yrotation Xrotation Zrotation
        JOINT RightWrist
        {
         OFFSET -25.164217 0.000000 0.000000
         CHANNELS 3 Yrotation Xrotation Zrotation
         End Site
         {
          OFFSET -18.796788 0.000000 0.000000
         }
        }
       }
      }
     }
     JOINT LeftCollar
     {
      OFFSET 3.071622 7.873185 0.000000
      CHANNELS 3 Yrotation Xrotation Zrotation
      JOINT LeftShoulder
      {
       OFFSET 14.378659 0.000000 0.000000
       CHANNELS 3 Yrotation Xrotation Zrotation
       JOINT LeftElbow
       {
        OFFSET 30.778728 0.000000 0.000000
        CHANNELS 3 Yrotation Xrotation Zrotation
        JOINT LeftWrist
        {
         OFFSET 25.164217 0.000000 0.000000
         CHANNELS 3 Yrotation Xrotation Zrotation
         End Site
         {
          OFFSET 18.796788 0.000000 0.000000
         }
        }
       }
      }
     }
    }
   }
  }
 }
 JOINT RightHip
 {
  OFFSET -8.194923 0.005295 0.000540
  CHANNELS 3 Yrotation Xrotation Zrotation
  JOINT RightKnee
  {
   OFFSET 0.000000 -42.473320 -0.000511
   CHANNELS 3 Yrotation Xrotation Zrotation
   JOINT RightAnkle
   {
    OFFSET 0.000000 -41.474259 -0.000865
    CHANNELS 3 Yrotation Xrotation Zrotation
    JOINT RightToe
    {
     OFFSET 0.000000 -7.354994 16.712725
     CHANNELS 3 Yrotation Xrotation Zrotation
     End Site
     {
      OFFSET 0.000000 -1.553903 6.764158
     }
    }
   }
  }
 }
 JOINT LeftHip
 {
  OFFSET 8.194923 0.005295 0.000540
  CHANNELS 3 Yrotation Xrotation Zrotation
  JOINT LeftKnee
  {
   OFFSET 0.000000 -42.473320 -0.000511
   CHANNELS 3 Yrotation Xrotation Zrotation
   JOINT LeftAnkle
   {
    OFFSET 0.000000 -41.474259 -0.000865
    CHANNELS 3 Yrotation Xrotation Zrotation
    JOINT LeftToe
    {
     OFFSET 0.000000 -7.354994 16.712725
     CHANNELS 3 Yrotation Xrotation Zrotation
     End Site
     {
      OFFSET 0.000000 -1.553903 6.764158
     }
    }
   }
  }
 }
}
MOTION
Frames: 11
Frame Time: 0.016667
-23.450371 88.055752 166.153070 19.232696 6.044124 7.086651 -3.656156 5.538300 2.953926 -1.750382 2.490105 1.122390 -1.750382 2.490105 1.122390 -1.317160 1.864391 0.848804 6.420141 17.068003 -2.416746 12.702450 -3.959872 -6.670821 15.624170 -15.485175 -8.646232 45.308388 -36.876578 9.531418 14.610038 19.558735 1.967675 18.026635 4.743569 -40.397551 -24.784770 -21.200994 5.546740 -57.237711 -58.533581 -24.036504 -11.467918 34.027288 -5.982383 -8.803628 7.306875 45.319384 -4.232950 -36.663671 0.888966 5.128211 30.422159 -3.421624 -1.164880 2.049372 -0.023196 -0.173360 0.647553 -0.276978 15.903423 3.459512 0.601314 3.590466 20.244398 -10.444447 7.258346 -23.277092 -0.438613 -0.077654 -0.566677 0.051879
-23.432242 88.100611 166.166238 19.303357 6.159139 7.069939 -3.558485 5.416383 2.990687 -1.747980 2.450507 1.125593 -1.747980 2.450507 1.125593 -1.315306 1.834687 0.851086 6.517055 17.035888 -2.406528 12.881014 -4.009328 -6.688229 15.340169 -15.338527 -8.404522 44.764268 -36.700724 9.475718 16.111390 19.117847 2.444243 17.888564 4.420295 -39.812102 -24.474060 -20.895165 5.551625 -56.244224 -58.783074 -24.580409 -13.788440 34.328150 -7.313043 -8.186569 7.188712 44.885529 -4.287332 -36.635898 0.872260 4.877940 30.156680 -3.507159 -0.946861 2.124876 -0.069532 -0.210044 0.678580 -0.208870 15.974183 3.413533 0.574520 3.537206 20.086422 -10.373249 7.186986 -23.132228 -0.471419 -0.046316 -0.628217 0.058461
-23.411898 88.158390 166.184426 19.439879 6.234885 7.053256 -3.485423 5.356798 3.028464 -1.740407 2.411060 1.130974 -1.740407 2.411060 1.130974 -1.309582 1.805099 0.854983 6.627041 16.989511 -2.399478 13.086280 -4.083086 -6.717629 14.982042 -15.182105 -8.071132 43.960682 -36.562037 9.439929 18.171671 18.560730 3.057001 17.380084 3.898937 -38.726018 -24.175564 -20.571559 5.523091 -54.898772 -58.901181 -25.329665 -16.824998 34.436398 -8.997246 -7.376132 7.103242 44.111094 -4.516787 -36.512171 0.900777 4.738468 29.788127 -3.540244 -0.770985 2.243703 -0.166995 -0.221506 0.710416 -0.133838 15.973338 3.392604 0.574141 3.478153 19.928458 -10.320111 7.082850 -22.973921 -0.506209 -0.004131 -0.684802 0.084564
-23.404296 88.230629 166.172177 19.616595 6.381703 7.031593 -3.403451 5.236152 3.080415 -1.730003 2.367281 1.138393 -1.730003 2.367281 1.138393 -1.301734 1.772263 0.860386 6.742544 16.923029 -2.386238 13.301790 -4.194020 -6.740047 14.563656 -15.002881 -7.630100 42.864645 -36.503384 9.452978 20.841862 17.919019 3.757220 16.364621 3.259672 -36.920592 -23.794301 -20.266861 5.436419 -53.134818 -58.962830 -26.405245 -20.635307 34.283932 -11.134586 -6.363746 6.975930 42.890268 -4.750066 -36.442928 0.909727 4.501397 29.320127 -3.568273 -0.535700 2.463205 -0.296064 -0.234763 0.720609 -0.068989 15.944817 3.291411 0.572555 3.417213 19.724692 -10.292414 6.968012 -22.755540 -0.544156 0.064586 -0.734327 0.134315
-23.392625 88.316637 166.155196 19.782576 6.510148 7.009155 -3.251837 5.153423 3.140453 -1.706319 2.319918 1.145421 -1.706319 2.319918 1.145421 -1.283920 1.736764 0.865437 6.838635 16.850373 -2.366532 13.480034 -4.319419 -6.744975 14.063291 -14.760909 -7.103237 41.464175 -36.480568 9.501173 24.008891 17.138248 4.556747 14.841441 2.412066 -34.426288 -23.428219 -19.911050 5.274226 -51.020200 -58.930910 -27.705582 -25.104157 33.766969 -13.660404 -5.159783 6.870998 40.878566 -5.027900 -36.332007 0.923866 4.388215 28.804740 -3.536423 -0.331393 2.729673 -0.400733 -0.272103 0.722975 -0.036659 15.966766 3.217474 0.623871 3.339176 19.518778 -10.338669 6.767442 -22.491596 -0.557257 0.149009 -0.814224 0.204391
-23.401471 88.410165 166.113428 19.907953 6.671457 6.955444 -3.046752 5.042092 3.230526 -1.691936 2.272115 1.152856 -1.691936 2.272115 1.152856 -1.273079 1.700918 0.870830 6.938190 16.770885 -2.335427 13.661615 -4.458493 -6.731084 13.597811 -14.498870 -6.510750 39.867009 -36.461038 9.695473 27.342886 16.441257 5.449602 13.078567 1.666581 -31.774234 -22.972067 -19.480413 5.036753 -48.503646 -58.844773 -29.325722 -30.056429 32.910934 -16.400003 -3.955021 6.896242 38.417193 -5.203885 -36.255355 0.922653 4.258774 28.266187 -3.455635 -0.161330 3.040914 -0.484633 -0.309216 0.727577 -0.045012 16.032535 3.091145 0.729733 3.212068 19.308752 -10.467146 6.609409 -22.174643 -0.562412 0.213971 -0.918873 0.282693
-23.406379 88.537992 166.054762 20.144682 6.800484 6.955894 -2.919429 4.965801 3.317590 -1.676066 2.226678 1.169240 -1.676066 2.226678 1.169240 -1.261158 1.666824 0.882937 6.995590 16.694058 -2.309030 13.766743 -4.597061 -6.711473 13.088512 -14.147914 -5.854321 38.138551 -36.486683 9.913981 30.636179 15.852783 6.512069 11.533676 1.220309 -29.491919 -22.469925 -18.994527 4.723119 -45.814794 -58.647533 -31.150862 -35.204048 31.791730 -19.190736 -2.767984 7.094147 36.216095 -5.494078 -36.108577 0.875104 4.146987 27.608514 -3.385356 0.009632 3.456856 -0.513377 -0.332791 0.705826 -0.084437 15.957553 2.984556 0.826182 3.126251 19.118699 -10.616220 6.392152 -21.889091 -0.587182 0.269489 -0.988578 0.377383
-23.397888 88.679001 165.936595 20.501198 6.947944 7.030958 -2.895554 4.827250 3.348799 -1.669924 2.180321 1.185309 -1.669924 2.180321 1.185309 -1.256527 1.632025 0.894843 7.039797 16.630642 -2.295440 13.850526 -4.710681 -6.709415 12.549613 -13.736560 -5.106010 36.441730 -36.484594 10.173569 33.618128 15.190522 7.624852 10.657637 0.895924 -27.685909 -21.923744 -18.533770 4.380948 -42.805155 -58.231618 -33.247490 -40.376889 30.269272 -21.918105 -1.813351 7.372709 34.307642 -5.764487 -36.028126 0.680034 3.997890 26.941067 -3.279515 0.130154 3.959936 -0.509912 -0.331806 0.645280 -0.136038 15.763415 2.805183 0.856241 3.042963 19.027254 -10.755323 6.234449 -21.678373 -0.658834 0.219273 -1.021282 0.458684
-23.343894 88.849676 165.750479 21.005231 7.087976 7.251588 -3.012342 4.649968 3.280417 -1.665204 2.135872 1.208309 -1.665204 2.135872 1.208309 -1.252989 1.598634 0.911957 7.055888 16.596528 -2.300949 13.885822 -4.770956 -6.729381 12.078557 -13.252041 -4.356017 34.537971 -36.395268 10.522796 36.499773 14.264950 8.721248 10.120887 0.667893 -26.102698 -21.308371 -17.976487 3.958215 -39.770339 -57.664479 -35.345698 -45.258877 28.305909 -24.381957 -1.093056 7.620789 32.341621 -6.021695 -35.954766 0.277463 3.978967 26.211427 -3.122140 0.047644 4.515970 -0.488674 -0.257308 0.592234 -0.151290 15.379877 2.608639 0.765910 2.915370 19.122882 -10.899431 6.231299 -21.709601 -0.763087 0.080404 -0.942834 0.474397
-23.258022 89.042240 165.492800 21.600915 7.168758 7.562232 -3.222765 4.449272 3.134617 -1.656109 2.088906 1.234100 -1.656109 2.088906 1.234100 -1.246170 1.563357 0.931143 7.051386 16.603370 -2.300435 13.876589 -4.758940 -6.726033 11.675132 -12.711012 -3.629751 32.300104 -36.177523 11.203215 39.364282 13.113742 9.614735 9.409574 0.567263 -24.374877 -20.627063 -17.375154 3.471772 -36.533522 -56.904065 -37.655615 -49.785238 25.955540 -26.572179 -0.508445 7.843757 30.243890 -6.234119 -35.878704 -0.293843 3.952393 25.463053 -2.953310 -0.096021 5.197675 -0.455385 -0.146600 0.468683 -0.137315 14.843737 2.377578 0.610512 2.617591 19.511116 -11.092498 6.318294 -21.898755 -0.823658 -0.014095 -0.875657 0.435037
-23.171516 89.231173 165.223148 22.101919 7.089059 7.811149 -3.380771 4.387015 3.044915 -1.654777 2.044561 1.262230 -1.654777 2.044561 1.262230 -1.245181 1.530025 0.952118 7.036772 16.645960 -2.262051 13.831808 -4.687365 -6.644859 11.295281 -12.146922 -3.014409 29.719355 -35.915812 12.369438 42.230659 11.598638 10.376142 8.338994 0.529764 -22.424010 -19.867119 -16.680104 2.911290 -32.962047 -56.106283 -40.212797 -54.011424 23.504398 -28.772457 0.069450 7.993512 28.174983 -6.368417 -35.641626 -0.830914 3.961418 24.720348 -2.789345 -0.261652 5.912043 -0.393983 -0.057802 0.322456 -0.123290 14.274200 2.236619 0.558504 2.105281 20.194595 -11.388634 6.467342 -22.155238 -0.873819 -0.060596 -0.963889 0.410446
